<?xml version="1.0" encoding="utf-8"?>
<svg version="1.1" xmlns:cc="http://creativecommons.org/ns#" xmlns:dc="http://purl.org/dc/elements/1.1/" xmlns:rdf="http://www.w3.org/1999/02/22-rdf-syntax-ns#" xmlns="http://www.w3.org/2000/svg" xmlns:xlink="http://www.w3.org/1999/xlink" x="0px" y="0px" viewBox="0 0 1024 768" xml:space="preserve">

 
 <g id="logo-group" transform="translate(-0.000005 -14.698) scale(1)">
  <path id="icon_container" stroke-width=".75" fill="#64686a" d="m512.1 260.06c-0.129-0.007-0.27 0.004-0.31575 0.0242-0.0465 0.02-13.106 7.5555-29.024 16.744-15.917 9.1898-28.994 16.76-29.058 16.821-0.0651 0.0617-0.1497 0.16806-0.18765 0.23686l-0.0692 0.1251-0.0125 33.36c-0.007 18.348-0.00041 33.478 0.0142 33.622 0.0204 0.206 0.0546 0.29941 0.15971 0.43785 0.11843 0.15596 3.4127 2.0696 28.968 16.828 15.859 9.1582 28.946 16.706 29.084 16.774 0.13761 0.0671 0.31609 0.12176 0.39615 0.12135 0.0805-0.00042 0.22101-0.0355 0.31275-0.0771 0.0917-0.0421 13.143-7.5682 29.002-16.725 15.86-9.1568 28.894-16.694 28.967-16.748 0.0721-0.0546 0.17555-0.16972 0.22935-0.25646l0.0976-0.1572v-67.182l-0.0725-0.13301c-0.04-0.073-0.14345-0.19183-0.22935-0.26355-0.0863-0.0717-13.179-7.6485-29.096-16.837l-28.942-16.707z"/>
  <path id="path523041" style="font-variant-ligatures:none" d="m370.21 517.61-0.708 5.796h6.084l-0.228 1.764h-6.072l-0.732 5.976h7.548l-0.228 1.824h-9.804l2.112-17.196h9.792l-0.228 1.836z" stroke-miterlimit="2" stroke-width="0" fill="#d4af37"/>
  <path id="path523043" style="font-variant-ligatures:none" d="m382.01 522.59-1.212 9.984-0.564 2.484q-0.132 0.432-0.396 0.66-0.252 0.24-0.708 0.24h-0.828l1.608-13.332-1.2-0.156q-0.216-0.06-0.348-0.18-0.12-0.12-0.096-0.372l0.108-0.864h1.728l0.144-1.176q0.132-1.044 0.516-1.848 0.396-0.816 0.984-1.368 0.6-0.564 1.356-0.852 0.768-0.288 1.656-0.288 0.732 0 1.356 0.24l-0.204 1.104q-0.048 0.24-0.324 0.24t-0.696 0q-0.516 0-0.96 0.156-0.432 0.144-0.768 0.48t-0.576 0.876q-0.228 0.54-0.324 1.32l-0.132 1.116h3.036l-0.204 1.536z" stroke-miterlimit="2" stroke-width="0" fill="#d4af37"/>
  <path id="path523045" style="font-variant-ligatures:none" d="m389.7 522.59-1.212 9.984-0.564 2.484q-0.132 0.432-0.396 0.66-0.252 0.24-0.708 0.24h-0.828l1.608-13.332-1.2-0.156q-0.216-0.06-0.348-0.18-0.12-0.12-0.096-0.372l0.108-0.864h1.728l0.144-1.176q0.132-1.044 0.516-1.848 0.396-0.816 0.984-1.368 0.6-0.564 1.356-0.852 0.768-0.288 1.656-0.288 0.732 0 1.356 0.24l-0.204 1.104q-0.048 0.24-0.324 0.24t-0.696 0q-0.516 0-0.96 0.156-0.432 0.144-0.768 0.48t-0.576 0.876q-0.228 0.54-0.324 1.32l-0.132 1.116h3.036l-0.204 1.536z" stroke-miterlimit="2" stroke-width="0" fill="#d4af37"/>
  <path id="path523047" style="font-variant-ligatures:none" d="m397.71 531.47q0.876 0 1.584-0.48 0.72-0.48 1.224-1.272 0.516-0.804 0.792-1.848t0.276-2.184q0-1.68-0.672-2.52-0.66-0.852-1.908-0.852-0.888 0-1.608 0.48-0.708 0.468-1.212 1.26t-0.78 1.836-0.276 2.184q0 1.68 0.66 2.544 0.66 0.852 1.92 0.852zm-0.204 1.668q-0.996 0-1.824-0.336-0.828-0.348-1.428-0.996t-0.936-1.584-0.336-2.136q0-1.536 0.48-2.892t1.32-2.364q0.84-1.02 1.968-1.608 1.14-0.588 2.448-0.588 0.996 0 1.824 0.348 0.828 0.336 1.428 0.984t0.936 1.584 0.336 2.124q0 1.524-0.48 2.88t-1.32 2.376q-0.828 1.02-1.968 1.62-1.14 0.588-2.448 0.588z" stroke-miterlimit="2" stroke-width="0" fill="#d4af37"/>
  <path id="path523049" style="font-variant-ligatures:none" d="m408.5 524.2q0.48-1.02 1.032-1.764 0.564-0.756 1.176-1.176 0.612-0.432 1.26-0.516 0.648-0.096 1.32 0.192l-0.384 2.052q-1.56-0.624-2.76 0.456-1.188 1.08-1.932 3.9l-0.672 5.628h-2.088l1.464-12.168h1.056q0.732 0 0.732 0.72z" stroke-miterlimit="2" stroke-width="0" fill="#d4af37"/>
  <path id="path523051" style="font-variant-ligatures:none" d="m414.61 530.68q0-0.072 0-0.18 0-0.12 0.012-0.336 0.024-0.216 0.06-0.564 0.048-0.348 0.12-0.912l0.744-6.084h-1.356q-0.168 0-0.276-0.108-0.096-0.12-0.072-0.36l0.096-0.852 1.872-0.252 0.912-3.756q0.06-0.18 0.18-0.288 0.132-0.12 0.324-0.12h1.116l-0.516 4.188h3.192l-0.18 1.548h-3.204l-0.732 5.976q-0.06 0.492-0.096 0.792t-0.06 0.48q-0.012 0.18-0.024 0.252 0 0.072 0 0.108 0 0.612 0.288 0.912 0.288 0.288 0.768 0.288 0.324 0 0.552-0.084 0.24-0.096 0.42-0.204t0.3-0.192q0.12-0.096 0.204-0.096 0.108 0 0.156 0.048 0.06 0.048 0.108 0.156l0.456 1.02q-0.588 0.516-1.344 0.816-0.744 0.288-1.5 0.288-1.164 0-1.836-0.636-0.66-0.636-0.684-1.848z" stroke-miterlimit="2" stroke-width="0" fill="#d4af37"/>
  <path id="path523053" style="font-variant-ligatures:none" d="m422.24 532.97 2.148-17.676h2.1l-2.148 17.676z" stroke-miterlimit="2" stroke-width="0" fill="#d4af37"/>
  <path id="path523055" style="font-variant-ligatures:none" d="m433.75 522.19q-0.756 0-1.392 0.312t-1.128 0.864q-0.492 0.54-0.84 1.284-0.348 0.732-0.54 1.584 1.848-0.228 2.964-0.516 1.116-0.3 1.716-0.636 0.6-0.348 0.792-0.744t0.192-0.828q0-0.216-0.096-0.444-0.096-0.24-0.312-0.432-0.204-0.192-0.54-0.312-0.336-0.132-0.816-0.132zm3.384 8.544q-0.612 0.636-1.2 1.092-0.588 0.444-1.2 0.744-0.6 0.3-1.272 0.432-0.66 0.144-1.428 0.144-1.044 0-1.872-0.348t-1.404-0.984q-0.576-0.648-0.888-1.56t-0.312-2.04q0-0.936 0.192-1.86 0.204-0.936 0.576-1.776 0.384-0.84 0.924-1.56 0.552-0.72 1.248-1.236 0.708-0.528 1.548-0.828 0.852-0.3 1.824-0.3 0.924 0 1.596 0.264t1.104 0.672 0.636 0.9q0.216 0.492 0.216 0.936 0 0.792-0.324 1.464-0.324 0.66-1.188 1.2-0.864 0.528-2.376 0.924t-3.888 0.636q0 0.132-0.012 0.264 0 0.12 0 0.252 0 1.608 0.696 2.46 0.708 0.84 2.124 0.84 0.576 0 1.02-0.12 0.456-0.12 0.804-0.288 0.36-0.18 0.624-0.384 0.276-0.216 0.492-0.384 0.228-0.18 0.42-0.3t0.384-0.12q0.228 0 0.408 0.204z" stroke-miterlimit="2" stroke-width="0" fill="#d4af37"/>
  <path id="path523057" style="font-variant-ligatures:none" d="m446.89 522.76q-0.096 0.144-0.192 0.216-0.096 0.06-0.24 0.06-0.168 0-0.372-0.132-0.192-0.132-0.48-0.288-0.276-0.168-0.684-0.3-0.408-0.144-0.984-0.144-0.54 0-0.984 0.156-0.444 0.144-0.768 0.408-0.312 0.264-0.492 0.624-0.168 0.348-0.168 0.744 0 0.564 0.372 0.9t0.936 0.588q0.564 0.24 1.212 0.468t1.212 0.576 0.936 0.888 0.372 1.404q0 0.84-0.336 1.608-0.324 0.768-0.948 1.356-0.612 0.576-1.488 0.924-0.864 0.348-1.944 0.348-1.164 0-2.064-0.408-0.888-0.42-1.452-1.068l0.528-0.816q0.108-0.156 0.228-0.24 0.132-0.084 0.336-0.084 0.192 0 0.384 0.168t0.48 0.384q0.288 0.204 0.72 0.372 0.444 0.168 1.116 0.168 0.588 0 1.056-0.18 0.48-0.18 0.804-0.48 0.336-0.3 0.504-0.696 0.18-0.408 0.18-0.864 0-0.612-0.372-0.972t-0.936-0.6-1.212-0.444q-0.648-0.216-1.212-0.54-0.564-0.336-0.936-0.864t-0.372-1.404q0-0.768 0.3-1.476 0.312-0.72 0.888-1.272t1.392-0.876q0.828-0.336 1.86-0.336 1.092 0 1.92 0.372 0.84 0.36 1.44 0.984z" stroke-miterlimit="2" stroke-width="0" fill="#d4af37"/>
  <path id="path523059" style="font-variant-ligatures:none" d="m456.5 522.76q-0.096 0.144-0.192 0.216-0.096 0.06-0.24 0.06-0.168 0-0.372-0.132-0.192-0.132-0.48-0.288-0.276-0.168-0.684-0.3-0.408-0.144-0.984-0.144-0.54 0-0.984 0.156-0.444 0.144-0.768 0.408-0.312 0.264-0.492 0.624-0.168 0.348-0.168 0.744 0 0.564 0.372 0.9t0.936 0.588q0.564 0.24 1.212 0.468t1.212 0.576 0.936 0.888 0.372 1.404q0 0.84-0.336 1.608-0.324 0.768-0.948 1.356-0.612 0.576-1.488 0.924-0.864 0.348-1.944 0.348-1.164 0-2.064-0.408-0.888-0.42-1.452-1.068l0.528-0.816q0.108-0.156 0.228-0.24 0.132-0.084 0.336-0.084 0.192 0 0.384 0.168t0.48 0.384q0.288 0.204 0.72 0.372 0.444 0.168 1.116 0.168 0.588 0 1.056-0.18 0.48-0.18 0.804-0.48 0.336-0.3 0.504-0.696 0.18-0.408 0.18-0.864 0-0.612-0.372-0.972t-0.936-0.6-1.212-0.444q-0.648-0.216-1.212-0.54-0.564-0.336-0.936-0.864t-0.372-1.404q0-0.768 0.3-1.476 0.312-0.72 0.888-1.272t1.392-0.876q0.828-0.336 1.86-0.336 1.092 0 1.92 0.372 0.84 0.36 1.44 0.984z" stroke-miterlimit="2" stroke-width="0" fill="#d4af37"/>
  <path id="path523061" style="font-variant-ligatures:none" d="m474.32 518.44q-0.132 0.168-0.252 0.264-0.12 0.084-0.288 0.084-0.204 0-0.432-0.204-0.228-0.216-0.588-0.456-0.348-0.252-0.852-0.456-0.504-0.216-1.26-0.216-0.768 0-1.368 0.24t-1.02 0.66q-0.408 0.408-0.624 0.96t-0.216 1.188q0 0.624 0.288 1.056 0.288 0.42 0.756 0.732 0.468 0.3 1.068 0.54 0.612 0.228 1.236 0.48 0.624 0.24 1.224 0.54 0.612 0.3 1.08 0.744t0.756 1.068 0.288 1.512q0 1.224-0.42 2.316-0.42 1.08-1.212 1.896-0.78 0.816-1.896 1.296t-2.508 0.48q-1.536 0-2.748-0.6-1.2-0.612-1.98-1.644l0.792-1.068q0.096-0.132 0.24-0.216t0.312-0.084q0.228 0 0.492 0.276 0.264 0.264 0.672 0.6 0.408 0.324 1.008 0.6 0.6 0.264 1.5 0.264 0.828 0 1.488-0.264 0.672-0.264 1.128-0.732 0.468-0.468 0.72-1.116 0.252-0.66 0.252-1.452 0-0.66-0.288-1.092-0.288-0.444-0.756-0.744t-1.068-0.516q-0.6-0.228-1.224-0.456t-1.224-0.516-1.068-0.732-0.756-1.092-0.288-1.596q0-1.056 0.384-2.028t1.104-1.716 1.752-1.188q1.044-0.444 2.34-0.444 1.32 0 2.376 0.504t1.74 1.38z" stroke-miterlimit="2" stroke-width="0" fill="#d4af37"/>
  <path id="path523063" style="font-variant-ligatures:none" d="m484.37 522.31q-0.264-0.06-0.528-0.072-0.252-0.024-0.504-0.024-0.72 0-1.392 0.24-0.672 0.228-1.26 0.648t-1.068 1.008q-0.48 0.576-0.828 1.272-0.336 0.696-0.528 1.488-0.192 0.78-0.192 1.608 0 2.892 1.848 2.892 0.588 0 1.152-0.36 0.564-0.372 1.068-1.02 0.516-0.66 0.948-1.548 0.432-0.9 0.768-1.968zm-0.816 7.464q-0.432 0.768-0.936 1.392-0.492 0.624-1.056 1.068-0.552 0.432-1.176 0.672-0.612 0.24-1.272 0.24-0.72 0-1.308-0.276-0.588-0.288-1.008-0.828-0.408-0.552-0.636-1.344-0.228-0.804-0.228-1.836 0-1.08 0.264-2.1 0.276-1.032 0.768-1.944 0.504-0.912 1.2-1.668 0.696-0.768 1.548-1.32 0.864-0.564 1.848-0.864 0.984-0.312 2.064-0.312 0.78 0 1.512 0.132 0.744 0.12 1.464 0.432l-1.452 11.76h-1.104q-0.42 0-0.576-0.216-0.144-0.216-0.144-0.528z" stroke-miterlimit="2" stroke-width="0" fill="#d4af37"/>
  <path id="path523065" style="font-variant-ligatures:none" d="m499.47 520.82-6.096 12.156h-1.776l-3.144-12.156h1.728q0.24 0 0.384 0.132t0.192 0.312l1.8 7.824q0.072 0.456 0.12 0.9t0.084 0.9q0.132-0.444 0.288-0.888t0.36-0.912l3.756-7.824q0.096-0.192 0.264-0.312 0.168-0.132 0.384-0.132z" stroke-miterlimit="2" stroke-width="0" fill="#d4af37"/>
  <path id="path523067" style="font-variant-ligatures:none" d="m503.49 520.82-1.464 12.156h-2.1l1.464-12.156zm0.816-3.816q0 0.312-0.132 0.588-0.12 0.264-0.336 0.48-0.204 0.204-0.48 0.324-0.264 0.12-0.552 0.12-0.276 0-0.54-0.12t-0.468-0.324q-0.192-0.216-0.312-0.48-0.12-0.276-0.12-0.588t0.12-0.588 0.324-0.48q0.204-0.216 0.468-0.336 0.264-0.132 0.54-0.132 0.288 0 0.552 0.12 0.276 0.12 0.48 0.336 0.204 0.204 0.324 0.492 0.132 0.276 0.132 0.588z" stroke-miterlimit="2" stroke-width="0" fill="#d4af37"/>
  <path id="path523069" style="font-variant-ligatures:none" d="m508.4 523.89q0.972-1.608 2.196-2.424 1.224-0.828 2.52-0.828 0.768 0 1.344 0.312 0.588 0.3 0.948 0.888 0.372 0.588 0.504 1.452 0.132 0.852 0 1.944l-0.912 7.74h-2.124l0.912-7.74q0.168-1.44-0.18-2.124-0.348-0.696-1.284-0.696-0.576 0-1.176 0.312-0.588 0.312-1.14 0.888t-1.032 1.392q-0.468 0.804-0.804 1.8l-0.696 6.168h-2.136l1.464-12.168h1.056q0.72 0 0.72 0.72z" stroke-miterlimit="2" stroke-width="0" fill="#d4af37"/>
  <path id="path523071" style="font-variant-ligatures:none" d="m522.6 527.49q0.648 0 1.14-0.276 0.504-0.288 0.84-0.744 0.348-0.468 0.528-1.044t0.18-1.164q0-1.056-0.54-1.596-0.528-0.54-1.464-0.54-0.648 0-1.14 0.264t-0.84 0.708q-0.336 0.444-0.516 1.008-0.168 0.564-0.168 1.176 0 1.08 0.516 1.644 0.528 0.564 1.464 0.564zm2.412 5.784q0-0.324-0.06-0.588-0.06-0.276-0.156-0.516-1.584-0.252-2.736-0.18-1.152 0.06-1.908 0.348-0.744 0.288-1.104 0.744t-0.36 0.984q0 0.864 0.72 1.32 0.732 0.456 2.064 0.456 0.792 0 1.44-0.216 0.66-0.204 1.116-0.552 0.468-0.348 0.72-0.816 0.264-0.468 0.264-0.984zm4.08-12.012-0.084 0.708q-0.06 0.432-0.48 0.576l-1.524 0.264q0.228 0.624 0.228 1.38 0 0.6-0.144 1.08-0.132 0.48-0.336 0.888t-0.444 0.768-0.444 0.72q-0.204 0.348-0.348 0.732-0.132 0.372-0.132 0.816 0 0.324 0.108 0.624 0.12 0.288 0.288 0.576 0.18 0.276 0.384 0.564 0.216 0.288 0.384 0.612 0.18 0.324 0.288 0.708 0.12 0.372 0.12 0.828-0.012 0.852-0.408 1.608-0.396 0.768-1.128 1.356t-1.776 0.924q-1.044 0.348-2.352 0.348-1.044 0-1.908-0.216-0.852-0.216-1.464-0.612-0.6-0.396-0.924-0.96-0.336-0.552-0.336-1.224 0-0.768 0.324-1.356t0.876-1.008q0.552-0.432 1.284-0.708t1.548-0.408q0.828-0.132 1.692-0.12 0.864 0 1.692 0.12-0.108-0.228-0.18-0.468-0.06-0.252-0.06-0.54 0-0.372 0.108-0.768 0.12-0.396 0.384-0.9-0.456 0.312-1.02 0.492-0.564 0.168-1.284 0.168-0.696 0-1.308-0.228-0.6-0.228-1.056-0.672t-0.72-1.104q-0.264-0.672-0.264-1.56 0-0.864 0.312-1.692 0.324-0.84 0.936-1.488 0.612-0.66 1.512-1.056t2.076-0.396q0.648 0 1.236 0.156t1.056 0.468z" stroke-miterlimit="2" stroke-width="0" fill="#d4af37"/>
  <path id="path523073" style="font-variant-ligatures:none" d="m539.33 522.59-1.212 9.984-0.564 2.484q-0.132 0.432-0.396 0.66-0.252 0.24-0.708 0.24h-0.828l1.608-13.332-1.2-0.156q-0.216-0.06-0.348-0.18-0.12-0.12-0.096-0.372l0.108-0.864h1.728l0.144-1.176q0.132-1.044 0.516-1.848 0.396-0.816 0.984-1.368 0.6-0.564 1.356-0.852 0.768-0.288 1.656-0.288 0.732 0 1.356 0.24l-0.204 1.104q-0.048 0.24-0.324 0.24t-0.696 0q-0.516 0-0.96 0.156-0.432 0.144-0.768 0.48t-0.576 0.876q-0.228 0.54-0.324 1.32l-0.132 1.116h3.036l-0.204 1.536z" stroke-miterlimit="2" stroke-width="0" fill="#d4af37"/>
  <path id="path523075" style="font-variant-ligatures:none" d="m547.33 531.47q0.876 0 1.584-0.48 0.72-0.48 1.224-1.272 0.516-0.804 0.792-1.848t0.276-2.184q0-1.68-0.672-2.52-0.66-0.852-1.908-0.852-0.888 0-1.608 0.48-0.708 0.468-1.212 1.26t-0.78 1.836-0.276 2.184q0 1.68 0.66 2.544 0.66 0.852 1.92 0.852zm-0.204 1.668q-0.996 0-1.824-0.336-0.828-0.348-1.428-0.996t-0.936-1.584-0.336-2.136q0-1.536 0.48-2.892t1.32-2.364q0.84-1.02 1.968-1.608 1.14-0.588 2.448-0.588 0.996 0 1.824 0.348 0.828 0.336 1.428 0.984t0.936 1.584 0.336 2.124q0 1.524-0.48 2.88t-1.32 2.376q-0.828 1.02-1.968 1.62-1.14 0.588-2.448 0.588z" stroke-miterlimit="2" stroke-width="0" fill="#d4af37"/>
  <path id="path523077" style="font-variant-ligatures:none" d="m558.12 524.2q0.48-1.02 1.032-1.764 0.564-0.756 1.176-1.176 0.612-0.432 1.26-0.516 0.648-0.096 1.32 0.192l-0.384 2.052q-1.56-0.624-2.76 0.456-1.188 1.08-1.932 3.9l-0.672 5.628h-2.088l1.464-12.168h1.056q0.732 0 0.732 0.72z" stroke-miterlimit="2" stroke-width="0" fill="#d4af37"/>
  <path id="path523079" style="font-variant-ligatures:none" d="m573.04 517.61-0.708 5.796h6.084l-0.228 1.764h-6.072l-0.732 5.976h7.548l-0.228 1.824h-9.804l2.112-17.196h9.792l-0.228 1.836z" stroke-miterlimit="2" stroke-width="0" fill="#d4af37"/>
  <path id="path523081" style="font-variant-ligatures:none" d="m591.91 520.82-6.096 12.156h-1.776l-3.144-12.156h1.728q0.24 0 0.384 0.132t0.192 0.312l1.8 7.824q0.072 0.456 0.12 0.9t0.084 0.9q0.132-0.444 0.288-0.888t0.36-0.912l3.756-7.824q0.096-0.192 0.264-0.312 0.168-0.132 0.384-0.132z" stroke-miterlimit="2" stroke-width="0" fill="#d4af37"/>
  <path id="path523083" style="font-variant-ligatures:none" d="m598.14 522.19q-0.756 0-1.392 0.312t-1.128 0.864q-0.492 0.54-0.84 1.284-0.348 0.732-0.54 1.584 1.848-0.228 2.964-0.516 1.116-0.3 1.716-0.636 0.6-0.348 0.792-0.744t0.192-0.828q0-0.216-0.096-0.444-0.096-0.24-0.312-0.432-0.204-0.192-0.54-0.312-0.336-0.132-0.816-0.132zm3.384 8.544q-0.612 0.636-1.2 1.092-0.588 0.444-1.2 0.744-0.6 0.3-1.272 0.432-0.66 0.144-1.428 0.144-1.044 0-1.872-0.348t-1.404-0.984q-0.576-0.648-0.888-1.56t-0.312-2.04q0-0.936 0.192-1.86 0.204-0.936 0.576-1.776 0.384-0.84 0.924-1.56 0.552-0.72 1.248-1.236 0.708-0.528 1.548-0.828 0.852-0.3 1.824-0.3 0.924 0 1.596 0.264t1.104 0.672 0.636 0.9q0.216 0.492 0.216 0.936 0 0.792-0.324 1.464-0.324 0.66-1.188 1.2-0.864 0.528-2.376 0.924t-3.888 0.636q0 0.132-0.012 0.264 0 0.12 0 0.252 0 1.608 0.696 2.46 0.708 0.84 2.124 0.84 0.576 0 1.02-0.12 0.456-0.12 0.804-0.288 0.36-0.18 0.624-0.384 0.276-0.216 0.492-0.384 0.228-0.18 0.42-0.3t0.384-0.12q0.228 0 0.408 0.204z" stroke-miterlimit="2" stroke-width="0" fill="#d4af37"/>
  <path id="path523085" style="font-variant-ligatures:none" d="m606.5 524.2q0.48-1.02 1.032-1.764 0.564-0.756 1.176-1.176 0.612-0.432 1.26-0.516 0.648-0.096 1.32 0.192l-0.384 2.052q-1.56-0.624-2.76 0.456-1.188 1.08-1.932 3.9l-0.672 5.628h-2.088l1.464-12.168h1.056q0.732 0 0.732 0.72z" stroke-miterlimit="2" stroke-width="0" fill="#d4af37"/>
  <path id="path523087" style="font-variant-ligatures:none" d="m622.85 520.82-8.208 15.78q-0.132 0.252-0.312 0.372-0.168 0.12-0.432 0.12h-1.572l2.64-4.836-3.156-11.436h1.764q0.264 0 0.384 0.132 0.12 0.12 0.18 0.312l1.956 7.656q0.06 0.252 0.096 0.504t0.06 0.504q0.108-0.252 0.216-0.504 0.108-0.264 0.228-0.516l3.84-7.668q0.096-0.192 0.264-0.3 0.18-0.12 0.36-0.12z" stroke-miterlimit="2" stroke-width="0" fill="#d4af37"/>
  <path id="path523089" style="font-variant-ligatures:none" d="m627.63 531.47q0.876 0 1.584-0.48 0.72-0.48 1.224-1.272 0.516-0.804 0.792-1.848t0.276-2.184q0-1.68-0.672-2.52-0.66-0.852-1.908-0.852-0.888 0-1.608 0.48-0.708 0.468-1.212 1.26t-0.78 1.836-0.276 2.184q0 1.68 0.66 2.544 0.66 0.852 1.92 0.852zm-0.204 1.668q-0.996 0-1.824-0.336-0.828-0.348-1.428-0.996t-0.936-1.584-0.336-2.136q0-1.536 0.48-2.892t1.32-2.364q0.84-1.02 1.968-1.608 1.14-0.588 2.448-0.588 0.996 0 1.824 0.348 0.828 0.336 1.428 0.984t0.936 1.584 0.336 2.124q0 1.524-0.48 2.88t-1.32 2.376q-0.828 1.02-1.968 1.62-1.14 0.588-2.448 0.588z" stroke-miterlimit="2" stroke-width="0" fill="#d4af37"/>
  <path id="path523091" style="font-variant-ligatures:none" d="m638.43 523.89q0.972-1.608 2.196-2.424 1.224-0.828 2.52-0.828 0.768 0 1.344 0.312 0.588 0.3 0.948 0.888 0.372 0.588 0.504 1.452 0.132 0.852 0 1.944l-0.912 7.74h-2.124l0.912-7.74q0.168-1.44-0.18-2.124-0.348-0.696-1.284-0.696-0.576 0-1.176 0.312-0.588 0.312-1.14 0.888t-1.032 1.392q-0.468 0.804-0.804 1.8l-0.696 6.168h-2.136l1.464-12.168h1.056q0.72 0 0.72 0.72z" stroke-miterlimit="2" stroke-width="0" fill="#d4af37"/>
  <path id="path523093" style="font-variant-ligatures:none" d="m654.25 522.19q-0.756 0-1.392 0.312t-1.128 0.864q-0.492 0.54-0.84 1.284-0.348 0.732-0.54 1.584 1.848-0.228 2.964-0.516 1.116-0.3 1.716-0.636 0.6-0.348 0.792-0.744t0.192-0.828q0-0.216-0.096-0.444-0.096-0.24-0.312-0.432-0.204-0.192-0.54-0.312-0.336-0.132-0.816-0.132zm3.384 8.544q-0.612 0.636-1.2 1.092-0.588 0.444-1.2 0.744-0.6 0.3-1.272 0.432-0.66 0.144-1.428 0.144-1.044 0-1.872-0.348t-1.404-0.984q-0.576-0.648-0.888-1.56t-0.312-2.04q0-0.936 0.192-1.86 0.204-0.936 0.576-1.776 0.384-0.84 0.924-1.56 0.552-0.72 1.248-1.236 0.708-0.528 1.548-0.828 0.852-0.3 1.824-0.3 0.924 0 1.596 0.264t1.104 0.672 0.636 0.9q0.216 0.492 0.216 0.936 0 0.792-0.324 1.464-0.324 0.66-1.188 1.2-0.864 0.528-2.376 0.924t-3.888 0.636q0 0.132-0.012 0.264 0 0.12 0 0.252 0 1.608 0.696 2.46 0.708 0.84 2.124 0.84 0.576 0 1.02-0.12 0.456-0.12 0.804-0.288 0.36-0.18 0.624-0.384 0.276-0.216 0.492-0.384 0.228-0.18 0.42-0.3t0.384-0.12q0.228 0 0.408 0.204z" stroke-miterlimit="2" stroke-width="0" fill="#d4af37"/>
  <path id="path523096" style="font-variant-ligatures:normal" d="m252.12 480.67h-0.072c-0.936 0-1.8 0.432-2.376 1.224-3.528 4.68-9 7.704-15.12 7.704-10.584 0-19.224-9-19.224-20.016s8.64-19.944 19.224-19.944c6.12 0 11.664 2.952 15.12 7.632 0.576 0.792 1.512 1.224 2.448 1.224 2.448 0 3.816-2.808 2.376-4.824-4.608-6.12-11.88-10.008-19.944-10.008-13.896 0-25.2 11.592-25.2 25.92s11.304 25.92 25.2 25.92c8.064 0 15.264-3.888 19.944-10.008 1.44-2.016 0.072-4.824-2.376-4.824z" stroke-miterlimit="2" stroke-width="0" fill="#d4af37"/>
  <path id="path523098" style="font-variant-ligatures:normal" d="m285.05 450.35h25.632c1.656 0 3.024-1.368 3.024-3.024 0-1.584-1.368-2.952-3.024-2.952h-25.632c-1.584 0-2.952 1.368-2.952 2.952 0 1.656 1.368 3.024 2.952 3.024zm-2.952 41.472c0 1.584 1.368 2.952 2.952 2.952h25.632c1.656 0 3.024-1.368 3.024-2.952 0-1.656-1.368-3.024-3.024-3.024h-22.608v-17.208h18.72c1.656 0 3.024-1.296 3.024-2.952s-1.368-3.024-3.024-3.024h-21.744c-1.584 0-2.952 1.368-2.952 3.024z" stroke-miterlimit="2" stroke-width="0" fill="#d4af37"/>
  <path id="path523100" style="font-variant-ligatures:normal" d="m378.66 444.38c-1.512 0.144-2.664 1.584-2.664 3.096v37.656l-18.36-26.28c-0.504-0.792-1.44-1.296-2.376-1.296-2.16 0.072-3.456 2.52-2.232 4.32l21.816 31.248c0.72 1.008 1.872 1.656 3.168 1.656 2.16 0 3.96-1.728 3.96-3.888v-43.56c0-1.728-1.512-3.096-3.312-2.952zm-37.08 47.448c0 1.584 1.368 2.952 2.952 2.952 1.656 0 3.024-1.368 3.024-2.952v-44.5c0-1.584-1.368-2.952-3.024-2.952-1.584 0-2.952 1.368-2.952 2.952z" stroke-miterlimit="2" stroke-width="0" fill="#d4af37"/>
  <path id="path523102" style="font-variant-ligatures:normal" d="m440.26 444.38h-29.088c-1.584 0-2.952 1.368-2.952 2.952 0 1.656 1.368 3.024 2.952 3.024h29.088c1.656 0 2.952-1.368 2.952-3.024 0-1.584-1.296-2.952-2.952-2.952zm-17.496 47.448c0 1.584 1.296 2.952 2.952 2.952s3.024-1.368 3.024-2.952v-32.544c0-1.656-1.368-2.952-3.024-2.952s-2.952 1.296-2.952 2.952z" stroke-miterlimit="2" stroke-width="0" fill="#d4af37"/>
  <path id="path523104" style="font-variant-ligatures:normal" d="m484.18 466.34c-7.488-2.376-11.016-3.96-11.016-8.136 0-5.04 3.96-8.568 9.648-8.568 4.536 0 8.352 3.096 9.36 7.344 0.36 1.296 1.512 2.304 2.88 2.304 2.016 0 3.384-1.872 2.88-3.744-1.656-6.84-7.848-11.88-15.12-11.88-8.928 0-15.624 6.264-15.624 14.544 0 9 8.424 11.664 15.12 13.824 7.704 2.448 11.304 4.104 11.304 8.496 0 6.264-5.328 9-10.512 9-5.04 0-9.288-3.528-10.296-8.208-0.288-1.368-1.512-2.304-2.952-2.304-1.872 0-3.312 1.8-2.88 3.672 1.656 7.344 8.28 12.816 16.128 12.816 9.504 0 16.488-6.264 16.488-14.976 0-9.216-8.568-11.952-15.408-14.184z" stroke-miterlimit="2" stroke-width="0" fill="#d4af37"/>
  <path id="path523106" style="font-variant-ligatures:normal" d="m568.52 490.53-18.072-44.208c-0.504-1.152-1.656-1.944-2.88-1.944h-1.512c-1.296 0-2.376 0.792-2.88 1.944l-18.144 44.208c-0.792 1.872 0.504 4.032 2.592 4.248h21.888c1.656 0 2.952-1.368 2.952-2.952 0-1.656-1.296-3.024-2.952-3.024h-17.064l13.464-32.832 0.864-2.16 0.864 2.16 15.192 36.864c0.432 1.152 1.584 1.944 2.88 1.944 2.16 0 3.672-2.232 2.808-4.248z" stroke-miterlimit="2" stroke-width="0" fill="#d4af37"/>
  <path id="path523108" style="font-variant-ligatures:normal" d="m627.69 444.38h-21.888c-1.656 0-3.024 1.296-3.024 2.952s1.368 3.024 3.024 3.024h17.064l-13.464 32.832-0.936 2.16-0.864-2.16-15.12-36.864c-0.504-1.224-1.584-1.944-2.88-1.944-2.16 0-3.672 2.232-2.88 4.248l18.144 44.208c0.504 1.152 1.584 1.944 2.88 1.944h1.512c1.224 0 2.376-0.792 2.88-1.944l18.072-44.208c0.864-1.944-0.504-4.032-2.52-4.248z" stroke-miterlimit="2" stroke-width="0" fill="#d4af37"/>
  <path id="path523110" style="font-variant-ligatures:normal" d="m660.68 444.38c-1.584 0-2.952 1.368-2.952 2.952v44.496c0 1.584 1.368 2.952 2.952 2.952 1.656 0 3.024-1.368 3.024-2.952v-44.5c0-1.584-1.368-2.952-3.024-2.952z" stroke-miterlimit="2" stroke-width="0" fill="#d4af37"/>
  <path id="path523112" style="font-variant-ligatures:normal" d="m732.1 444.38c-1.512 0.144-2.664 1.584-2.664 3.096v37.656l-18.36-26.28c-0.504-0.792-1.44-1.296-2.376-1.296-2.16 0.072-3.456 2.52-2.232 4.32l21.816 31.248c0.72 1.008 1.872 1.656 3.168 1.656 2.16 0 3.96-1.728 3.96-3.888v-43.56c0-1.728-1.512-3.096-3.312-2.952zm-37.08 47.448c0 1.584 1.368 2.952 2.952 2.952 1.656 0 3.024-1.368 3.024-2.952v-44.5c0-1.584-1.368-2.952-3.024-2.952-1.584 0-2.952 1.368-2.952 2.952z" stroke-miterlimit="2" stroke-width="0" fill="#d4af37"/>
  <path id="path523114" style="font-variant-ligatures:normal" d="m811.63 468.64c-1.584 0-2.88 1.152-2.952 2.736-0.144 1.152-0.288 2.448-0.432 3.168-2.16 8.64-9.72 15.048-18.648 15.048-10.584 0-19.224-9-19.224-20.016s8.64-19.944 19.224-19.944c7.056 0 13.176 3.888 16.56 9.792 0.504 0.936 1.512 1.512 2.592 1.512 2.304 0 3.744-2.448 2.592-4.464-4.392-7.704-12.456-12.816-21.744-12.816-13.896 0-25.2 11.592-25.2 25.92s11.304 25.92 25.2 25.92c12.24 0 22.464-9 24.696-20.952 0.144-0.648 0.288-1.656 0.36-2.736 0.072-1.728-1.296-3.168-3.024-3.168zm-23.976 2.952c0 1.656 1.368 2.952 3.024 2.952h9.864c1.656 0 2.952-1.296 2.952-2.952s-1.296-2.952-2.952-2.952h-9.864c-1.656 0-3.024 1.296-3.024 2.952z" stroke-miterlimit="2" stroke-width="0" fill="#d4af37"/>
  <path id="icon" stroke-width="0.975" fill="#d4af37" d="m533.83 352.73h-32.152q-1.234 0-2.6736-0.27421-1.4054-0.30849-2.8107-0.92549-1.3711-0.61699-2.6394-1.5768-1.2683-0.99406-2.2623-2.3652-0.95977-1.4054-1.5425-3.2221-0.58272-1.851-0.58272-4.1476v-24.131q0-1.234 0.27422-2.6394 0.3085-1.4396 0.92549-2.8107 0.61699-1.4054 1.611-2.6736 0.99405-1.2683 2.3651-2.228 1.4054-0.99405 3.2221-1.5768 1.8167-0.58272 4.1133-0.58272h32.152v8.9121h-32.152q-1.7481 0-2.6736 0.92549-0.92549 0.92549-0.92549 2.7422v24.063q0 1.7139 0.92549 2.6736 0.95976 0.92549 2.6736 0.92549h32.152z"/>
 </g>

</svg>